<svg id="SvgjsSvg1008" xmlns="http://www.w3.org/2000/svg" version="1.1" xmlns:xlink="http://www.w3.org/1999/xlink" xmlns:svgjs="http://svgjs.com/svgjs" width="24" height="25" viewBox="0 0 24 25"><title>phone icon</title><desc>Created with Avocode.</desc><defs id="SvgjsDefs1009"></defs><path id="SvgjsPath1010" d="M1123.4 58.803C1123.4 58.803 1122.8100000000002 59.6271 1121.6200000000001 60.8009C1120.43 61.9747 1119.5600000000002 61.9998 1119.0400000000002 61.9998C1118.5200000000002 61.9998 1116.4400000000003 61.8996 1113.0900000000001 59.6022C1109.7400000000002 57.304500000000004 1105.7 53.2089 1102.9800000000002 49.81230000000001C1100.2500000000002 46.41590000000001 1100.0000000000002 44.168400000000005 1100.0000000000002 43.01930000000001C1100.0000000000002 41.87070000000001 1100.6000000000001 41.02160000000001 1100.6000000000001 41.02160000000001C1100.6000000000001 41.02160000000001 1101.64 39.89750000000001 1102.5800000000002 39.023700000000005C1103.5200000000002 38.14940000000001 1104.5600000000002 38.0245 1104.5600000000002 38.0245C1104.5600000000002 38.0245 1105.3100000000002 37.849900000000005 1105.9500000000003 38.424200000000006C1106.6000000000004 38.99850000000001 1108.9300000000003 42.02060000000001 1108.9300000000003 42.02060000000001C1108.9300000000003 42.02060000000001 1109.5200000000002 42.59490000000001 1109.5200000000002 43.61880000000001C1109.5200000000002 44.642700000000005 1109.3200000000002 44.617700000000006 1109.3200000000002 44.617700000000006C1109.3200000000002 44.617700000000006 1108.5300000000002 45.492000000000004 1108.13 46.016200000000005C1107.74 46.54090000000001 1108.13 47.4147 1108.13 47.4147C1108.13 47.4147 1108.8000000000002 48.089200000000005 1109.1200000000001 48.413900000000005C1109.45 48.7385 1114.2800000000002 53.6084 1114.2800000000002 53.6084C1114.2800000000002 53.6084 1114.9300000000003 54.008100000000006 1115.2700000000002 54.008100000000006C1115.6200000000001 54.008100000000006 1116.0700000000002 53.80820000000001 1116.0700000000002 53.80820000000001C1116.0700000000002 53.80820000000001 1116.3100000000002 53.458800000000004 1116.8600000000001 53.008900000000004C1117.4 52.5596 1117.5500000000002 52.4097 1118.2500000000002 52.4097C1118.9400000000003 52.4097 1119.4400000000003 52.809200000000004 1119.4400000000003 52.809200000000004C1119.4400000000003 52.809200000000004 1122.2600000000002 55.0071 1122.8100000000002 55.406400000000005C1123.3600000000001 55.80630000000001 1124.0000000000002 56.5305 1124.0000000000002 57.404500000000006C1124.0000000000002 58.278600000000004 1123.4000000000003 58.803000000000004 1123.4000000000003 58.803000000000004Z " fill="#ffffff" fill-opacity="1" transform="matrix(1,0,0,1,-1100,-37)"></path></svg>