<svg id="SvgjsSvg1029" xmlns="http://www.w3.org/2000/svg" version="1.1" xmlns:xlink="http://www.w3.org/1999/xlink" xmlns:svgjs="http://svgjs.com/svgjs" width="18" height="18" viewBox="0 0 18 18"><title>Прямоугольник, скругл. углы 1</title><desc>Created with Avocode.</desc><defs id="SvgjsDefs1030"><clipPath id="SvgjsClipPath1033"><path id="SvgjsPath1032" d="M1523 3973L1531 3973C1533.76 3973 1536 3975.24 1536 3978L1536 3986C1536 3988.76 1533.76 3991 1531 3991L1523 3991C1520.24 3991 1518 3988.76 1518 3986L1518 3978C1518 3975.24 1520.24 3973 1523 3973Z " fill="#ffffff"></path></clipPath><clipPath id="SvgjsClipPath1036"><path id="SvgjsPath1035" d="M1527 3978C1529.21 3978 1531 3979.79 1531 3982C1531 3984.21 1529.21 3986 1527 3986C1524.79 3986 1523 3984.21 1523 3982C1523 3979.79 1524.79 3978 1527 3978Z " fill="#ffffff"></path></clipPath></defs><path id="SvgjsPath1031" d="M1523 3973L1531 3973C1533.76 3973 1536 3975.24 1536 3978L1536 3986C1536 3988.76 1533.76 3991 1531 3991L1523 3991C1520.24 3991 1518 3988.76 1518 3986L1518 3978C1518 3975.24 1520.24 3973 1523 3973Z " fill-opacity="0" fill="#ffffff" stroke-dasharray="0" stroke-linejoin="miter" stroke-linecap="butt" stroke-opacity="1" stroke="#ffffff" stroke-miterlimit="50" stroke-width="4" clip-path="url(&quot;#SvgjsClipPath1033&quot;)" transform="matrix(1,0,0,1,-1518,-3973)"></path><path id="SvgjsPath1034" d="M1527 3978C1529.21 3978 1531 3979.79 1531 3982C1531 3984.21 1529.21 3986 1527 3986C1524.79 3986 1523 3984.21 1523 3982C1523 3979.79 1524.79 3978 1527 3978Z " fill-opacity="0" fill="#ffffff" stroke-dasharray="0" stroke-linejoin="miter" stroke-linecap="butt" stroke-opacity="1" stroke="#ffffff" stroke-miterlimit="50" stroke-width="4" clip-path="url(&quot;#SvgjsClipPath1036&quot;)" transform="matrix(1,0,0,1,-1518,-3973)"></path></svg>