<svg id="SvgjsSvg1014" xmlns="http://www.w3.org/2000/svg" version="1.1" xmlns:xlink="http://www.w3.org/1999/xlink" xmlns:svgjs="http://svgjs.com/svgjs" width="12" height="21" viewBox="0 0 12 21"><title>Прямоугольник, скругл. углы 78</title><desc>Created with Avocode.</desc><defs id="SvgjsDefs1015"><clipPath id="SvgjsClipPath1019"><path id="SvgjsPath1018" d="M1343 3972C1345.76 3972 1348 3974.24 1348 3977C1348 3979.76 1345.76 3982 1343 3982C1340.24 3982 1338 3979.76 1338 3977C1338 3974.24 1340.24 3972 1343 3972Z " fill="#ffffff"></path></clipPath></defs><path id="SvgjsPath1016" d="M1338.4 3983.11C1338.99 3982.52 1339.94 3982.52 1340.52 3983.11L1342.99694 3985.58306L1345.47 3983.11C1346.06 3982.52 1347.01 3982.52 1347.6000000000001 3983.11C1348.18 3983.7000000000003 1348.18 3984.65 1347.6000000000001 3985.23L1345.12361 3987.70639L1346.89 3989.47C1347.47 3990.06 1347.47 3991.0099999999998 1346.89 3991.6C1346.3000000000002 3992.18 1345.3500000000001 3992.18 1344.7700000000002 3991.6L1343.0000000000002 3989.83L1341.2300000000002 3991.6C1340.6500000000003 3992.18 1339.7000000000003 3992.18 1339.1100000000004 3991.6C1338.5300000000004 3991.0099999999998 1338.5300000000004 3990.06 1339.1100000000004 3989.47L1340.8750000000005 3987.705L1338.4000000000005 3985.23C1337.8200000000006 3984.65 1337.8200000000006 3983.7 1338.4000000000005 3983.11Z " fill="#ffffff" fill-opacity="1" transform="matrix(1,0,0,1,-1337,-3972)"></path><path id="SvgjsPath1017" d="M1343 3972C1345.76 3972 1348 3974.24 1348 3977C1348 3979.76 1345.76 3982 1343 3982C1340.24 3982 1338 3979.76 1338 3977C1338 3974.24 1340.24 3972 1343 3972Z " fill-opacity="0" fill="#ffffff" stroke-dasharray="0" stroke-linejoin="miter" stroke-linecap="butt" stroke-opacity="1" stroke="#ffffff" stroke-miterlimit="50" stroke-width="6" clip-path="url(&quot;#SvgjsClipPath1019&quot;)" transform="matrix(1,0,0,1,-1337,-3972)"></path></svg>