<svg id="SvgjsSvg1000" xmlns="http://www.w3.org/2000/svg" version="1.1" xmlns:xlink="http://www.w3.org/1999/xlink" xmlns:svgjs="http://svgjs.com/svgjs" width="28" height="39" viewBox="0 0 28 39"><title>pin icon 1</title><desc>Created with Avocode.</desc><defs id="SvgjsDefs1001"></defs><path id="SvgjsPath1007" d="M249 3370C256.732 3370 263 3376.27 263 3384C263 3384.47056 262.97677 3384.9357 262.9314 3385.39436C262.97649 3385.5772599999996 263 3385.77873 263 3386C263 3391.4 249 3409 249 3409C249 3409 235 3391.4 235 3386C235 3385.77872 235.02351 3385.57726 235.0686 3385.39436C235.02323 3384.9357099999997 235 3384.4705599999998 235 3384C235 3376.27 241.268 3370 249 3370ZM243 3384C243 3387.31 245.686 3390 249 3390C252.314 3390 255 3387.31 255 3384C255 3380.69 252.314 3378 249 3378C245.686 3378 243 3380.69 243 3384Z " fill="#e0117b" fill-opacity="1" transform="matrix(1,0,0,1,-235,-3370)"></path></svg>