<svg id="SvgjsSvg1020" xmlns="http://www.w3.org/2000/svg" version="1.1" xmlns:xlink="http://www.w3.org/1999/xlink" xmlns:svgjs="http://svgjs.com/svgjs" width="18" height="16" viewBox="0 0 18 16"><title>twitter</title><desc>Created with Avocode.</desc><defs id="SvgjsDefs1021"></defs><path id="SvgjsPath1022" d="M1392.24 3975C1393.67 3974.97 1394.43 3975.51 1395.16 3976.19C1395.78 3976.13 1396.5800000000002 3975.78 1397.0500000000002 3975.53C1397.2100000000003 3975.4500000000003 1397.3600000000001 3975.36 1397.5100000000002 3975.28C1397.2400000000002 3976.02 1396.88 3976.61 1396.3200000000002 3977.0600000000004C1396.19 3977.1500000000005 1396.0700000000002 3977.2900000000004 1395.91 3977.3500000000004L1395.91 3977.3600000000006C1396.71 3977.3500000000004 1397.3700000000001 3976.9800000000005 1398 3976.7800000000007L1398 3976.790000000001C1397.67 3977.330000000001 1397.22 3977.870000000001 1396.75 3978.2600000000007C1396.56 3978.4200000000005 1396.36 3978.580000000001 1396.17 3978.7300000000005C1396.18 3979.6100000000006 1396.16 3980.4400000000005 1396 3981.1700000000005C1395.08 3985.4200000000005 1392.63 3988.3100000000004 1388.77 3989.5500000000006C1387.3799999999999 3990.0000000000005 1385.1299999999999 3990.1800000000007 1383.54 3989.7700000000004C1382.75 3989.5700000000006 1382.04 3989.3400000000006 1381.37 3989.0400000000004C1381 3988.8800000000006 1380.6499999999999 3988.7000000000003 1380.32 3988.4900000000002C1380.22 3988.42 1380.11 3988.36 1380 3988.2900000000004C1380.36 3988.3000000000006 1380.78 3988.4000000000005 1381.18 3988.3300000000004C1381.54 3988.2700000000004 1381.9 3988.2900000000004 1382.23 3988.2100000000005C1383.07 3988.0300000000007 1383.81 3987.7800000000007 1384.45 3987.3900000000003C1384.76 3987.2100000000005 1385.23 3986.9900000000002 1385.45 3986.7200000000003C1385.04 3986.7300000000005 1384.66 3986.63 1384.3500000000001 3986.5200000000004C1383.16 3986.0800000000004 1382.46 3985.2900000000004 1382.0100000000002 3984.0900000000006C1382.3700000000001 3984.1300000000006 1383.4100000000003 3984.2300000000005 1383.6600000000003 3984.0200000000004C1383.2000000000003 3983.9900000000002 1382.7600000000002 3983.7200000000003 1382.4500000000003 3983.5200000000004C1381.4900000000002 3982.9000000000005 1380.7100000000003 3981.8700000000003 1380.7100000000003 3980.2700000000004C1380.8400000000004 3980.3400000000006 1380.9600000000003 3980.4000000000005 1381.0900000000004 3980.4600000000005C1381.3300000000004 3980.5600000000004 1381.5800000000004 3980.6200000000003 1381.8600000000004 3980.6800000000003C1381.9900000000005 3980.7100000000005 1382.2300000000002 3980.78 1382.3700000000003 3980.7300000000005C1382.3600000000004 3980.7300000000005 1382.3600000000004 3980.7300000000005 1382.3500000000004 3980.7300000000005C1382.1700000000003 3980.5000000000005 1381.8600000000004 3980.3600000000006 1381.6800000000003 3980.1200000000003C1381.0600000000004 3979.3300000000004 1380.4800000000002 3978.1200000000003 1380.8500000000004 3976.6800000000003C1380.9400000000003 3976.3100000000004 1381.0900000000004 3975.9900000000002 1381.2400000000005 3975.6900000000005C1381.2500000000005 3975.6900000000005 1381.2500000000005 3975.7000000000007 1381.2600000000004 3975.7000000000007C1381.3300000000004 3975.850000000001 1381.4900000000005 3975.9700000000007 1381.5900000000004 3976.100000000001C1381.9100000000003 3976.500000000001 1382.3000000000004 3976.860000000001 1382.6900000000003 3977.1800000000007C1384.0400000000002 3978.2600000000007 1385.2600000000002 3978.9200000000005 1387.2100000000003 3979.4200000000005C1387.7000000000003 3979.5400000000004 1388.2700000000002 3979.6400000000003 1388.8600000000004 3979.6400000000003C1388.7000000000003 3979.1400000000003 1388.7500000000005 3978.34 1388.8800000000003 3977.86C1389.2100000000003 3976.65 1389.9300000000003 3975.78 1390.9700000000003 3975.31C1391.2200000000003 3975.2 1391.5000000000002 3975.12 1391.7900000000002 3975.0499999999997C1391.9400000000003 3975.0399999999995 1392.0900000000001 3975.0199999999995 1392.2400000000002 3974.9999999999995Z " fill="#ffffff" fill-opacity="1" transform="matrix(1,0,0,1,-1380,-3974)"></path></svg>