<svg id="SvgjsSvg1011" xmlns="http://www.w3.org/2000/svg" version="1.1" xmlns:xlink="http://www.w3.org/1999/xlink" xmlns:svgjs="http://svgjs.com/svgjs" width="18" height="12" viewBox="0 0 18 12"><title>icon</title><desc>Created with Avocode.</desc><defs id="SvgjsDefs1012"></defs><path id="SvgjsPath1013" d="M1303.54 3981.36C1304.6499999999999 3979.94 1305 3979.4 1305 3979C1305 3978.07 1304 3978 1304 3978L1302 3978C1302 3978 1303.02 3978 1302 3978C1300.93 3978 1300.72 3978.79 1300.72 3978.79C1300.72 3978.79 1300.29 3979.89 1299.72 3980.83C1298.51 3982.7999999999997 1298.44 3983 1298 3983C1298 3982.34 1298 3981.61 1298 3981C1298 3979.09 1297.89 3978.21 1297 3978C1296.71 3977.93 1295.75 3978.01 1295 3978C1294.04 3977.99 1294.51 3978 1294 3978C1293.16 3978 1292.86 3978.98 1293 3979C1293.18 3979.02 1293.59 3978.8 1293.8 3979.08C1294.08 3979.45 1294 3981 1294 3981C1294 3981 1294.23 3982.52 1293.7 3982.8C1293.3300000000002 3982.9900000000002 1292.8300000000002 3982.6000000000004 1291.76 3980.8100000000004C1291.21 3979.8900000000003 1291 3979.0000000000005 1291 3979.0000000000005C1291 3979.0000000000005 1291.34 3980.0100000000007 1291 3979.0000000000005C1291 3978.6300000000006 1290 3978.0000000000005 1290 3978.0000000000005L1288 3978.0000000000005C1288 3978.0000000000005 1287 3978.2600000000007 1287 3979.0000000000005C1287 3979.1900000000005 1287 3979.0000000000005 1287 3979.0000000000005C1287 3979.0000000000005 1288.72 3983.7100000000005 1291 3986.0000000000005C1293.09 3988.1000000000004 1296 3988.0000000000005 1296 3988.0000000000005L1297 3988.0000000000005C1297.87 3987.9700000000003 1297.31 3986.0300000000007 1298 3986.0000000000005C1298.69 3985.9700000000003 1300.1 3987.4000000000005 1301 3988.0000000000005C1302.84 3988.0000000000005 1304 3988.0000000000005 1304 3988.0000000000005C1304 3988.0000000000005 1305.42 3987.7700000000004 1304.82 3986.8200000000006C1304.77 3986.7400000000007 1304.47 3986.1100000000006 1303.03 3984.830000000001C1301.53 3983.480000000001 1301.73 3983.690000000001 1303.54 3981.360000000001Z " fill="#ffffff" fill-opacity="1" transform="matrix(1,0,0,1,-1287,-3977)"></path></svg>