<svg id="SvgjsSvg1026" xmlns="http://www.w3.org/2000/svg" version="1.1" xmlns:xlink="http://www.w3.org/1999/xlink" xmlns:svgjs="http://svgjs.com/svgjs" width="18" height="12" viewBox="0 0 18 12"><title>Icon</title><desc>Created with Avocode.</desc><defs id="SvgjsDefs1027"></defs><path id="SvgjsPath1028" d="M1474.7 3976.17C1474.3500000000001 3976.21 1473.5800000000002 3976.21 1472.89 3976.89C1472.3500000000001 3977.41 1472.18 3978.5899999999997 1472.18 3978.5899999999997C1472.18 3978.5899999999997 1472 3979.97 1472 3981.35L1472 3982.64C1472 3984.02 1472.18 3985.4 1472.18 3985.4C1472.18 3985.4 1472.3500000000001 3986.58 1472.89 3987.1C1473.5800000000002 3987.7799999999997 1474.48 3987.7599999999998 1474.88 3987.83C1476.3200000000002 3987.96 1481 3988 1481 3988C1481 3988 1484.78 3987.99 1487.3 3987.82C1487.6499999999999 3987.78 1488.4199999999998 3987.78 1489.1 3987.1000000000004C1489.6399999999999 3986.5800000000004 1489.82 3985.4000000000005 1489.82 3985.4000000000005C1489.82 3985.4000000000005 1490 3984.0200000000004 1490 3982.6400000000003L1490 3981.3500000000004C1490 3979.9700000000003 1489.82 3978.59 1489.82 3978.59C1489.82 3978.59 1489.6399999999999 3977.4100000000003 1489.1 3976.8900000000003C1488.4199999999998 3976.2100000000005 1487.6499999999999 3976.2100000000005 1487.3 3976.1700000000005C1484.78 3976.0000000000005 1481 3976.0000000000005 1481 3976.0000000000005C1481 3976.0000000000005 1477.22 3976.0000000000005 1474.7 3976.1700000000005ZM1479 3979L1484 3982L1479 3985Z " fill="#ffffff" fill-opacity="1" transform="matrix(1,0,0,1,-1472,-3976)"></path></svg>